<svg width="16" height="16" viewBox="0 0 16 16" fill="none" xmlns="http://www.w3.org/2000/svg">
    <path fill-rule="evenodd" clip-rule="evenodd"
        d="M13.7179 6.48406C13.8221 6.37987 13.9634 6.32134 14.1108 6.32134C14.2581 6.32134 14.3994 6.37987 14.5036 6.48406C14.6078 6.58825 14.6663 6.72956 14.6663 6.8769V10.4125C14.6672 10.7774 14.5958 11.1388 14.4561 11.4759C14.3164 11.813 14.1112 12.119 13.8525 12.3763L12.3769 13.853C12.1195 14.1117 11.8133 14.3168 11.4761 14.4564C11.1389 14.596 10.7774 14.6674 10.4125 14.6663H4.11079C3.37434 14.6655 2.66832 14.3725 2.14757 13.8518C1.62683 13.331 1.33389 12.625 1.33301 11.8886V4.11079C1.33389 3.37434 1.62683 2.66832 2.14757 2.14757C2.66832 1.62683 3.37434 1.33389 4.11079 1.33301H9.13412C9.28146 1.33301 9.42277 1.39154 9.52696 1.49573C9.63114 1.59991 9.68968 1.74122 9.68968 1.88856C9.68968 2.03591 9.63114 2.17721 9.52696 2.2814C9.42277 2.38559 9.28146 2.44412 9.13412 2.44412H4.11079C3.66876 2.44412 3.24484 2.61971 2.93227 2.93227C2.61971 3.24484 2.44412 3.66876 2.44412 4.11079V11.8886C2.44412 12.3306 2.61971 12.7545 2.93227 13.0671C3.24484 13.3796 3.66876 13.5552 4.11079 13.5552H9.66634V11.333C9.66634 10.891 9.84194 10.4671 10.1545 10.1545C10.4671 9.84194 10.891 9.66634 11.333 9.66634H13.5552V6.8769C13.5552 6.72956 13.6138 6.58825 13.7179 6.48406ZM10.7775 13.5119C11.0856 13.4445 11.368 13.2902 11.5913 13.0675L13.0691 11.5908C13.2908 11.3669 13.4448 11.085 13.5136 10.7775H11.333C11.1857 10.7775 11.0444 10.836 10.9402 10.9402C10.836 11.0444 10.7775 11.1857 10.7775 11.333V13.5119ZM4.9241 8.62301L11.6974 1.84968C12.0276 1.53407 12.4668 1.35793 12.9235 1.35793C13.3803 1.35793 13.8195 1.53407 14.1497 1.84968C14.4743 2.17514 14.6567 2.61608 14.6567 3.07579C14.6567 3.5355 14.4743 3.97644 14.1497 4.3019L7.37633 11.0752C7.11902 11.3339 6.81296 11.539 6.47586 11.6786C6.13875 11.8182 5.7773 11.8896 5.41244 11.8886H4.66632C4.51898 11.8886 4.37767 11.83 4.27349 11.7259C4.1693 11.6217 4.11077 11.4804 4.11077 11.333V10.5869C4.10974 10.222 4.18109 9.86059 4.3207 9.52348C4.46031 9.18638 4.6654 8.88032 4.9241 8.62301ZM6.59077 10.2897L13.3641 3.51635C13.4807 3.39939 13.5462 3.24096 13.5462 3.07579C13.5462 2.91062 13.4807 2.75219 13.3641 2.63524C13.2454 2.52188 13.0877 2.45862 12.9235 2.45862C12.7594 2.45862 12.6017 2.52188 12.483 2.63524L5.70966 9.40857C5.39831 9.72183 5.22304 10.1452 5.22188 10.5869V10.7775H5.41244C5.85411 10.7763 6.27751 10.601 6.59077 10.2897Z"
        fill="#FF7A00" />
</svg>
