<svg id="Layer_1-2" xmlns="http://www.w3.org/2000/svg" width="12.525" height="12.525"
    viewBox="0 0 12.525 12.525">
    <path id="path_37" data-name="path 37"
        d="M12.527,6.653c-.04.268-.069.538-.121.805a6.176,6.176,0,0,1-1.674,3.193.332.332,0,0,1-.442.086.316.316,0,0,1-.136-.389.8.8,0,0,1,.155-.208A5.6,5.6,0,0,0,7.4.779a5.562,5.562,0,0,0-6.56,4.1,5.447,5.447,0,0,0,1.33,5.215c.041.046.087.088.127.136a.329.329,0,0,1-.013.47.307.307,0,0,1-.456-.018,9.46,9.46,0,0,1-.814-1.007A6.259,6.259,0,0,1,11,2.164a6.186,6.186,0,0,1,1.5,3.6.868.868,0,0,0,.027.119Z"
        transform="translate(-0.001 -0.002)" fill="#fff" />
    <path id="path_38" data-name="path 38"
        d="M13.412,17.659a4.283,4.283,0,0,1,8.526-.577,4.183,4.183,0,0,1-1.171,3.569.339.339,0,0,1-.481.068.331.331,0,0,1,.007-.525,3.625,3.625,0,1,0-6.182-3.072,3.52,3.52,0,0,0,.913,3c.038.043.08.081.115.125a.328.328,0,0,1-.481.445,4.153,4.153,0,0,1-.767-1.04,4.209,4.209,0,0,1-.482-1.99Z"
        transform="translate(-11.432 -11.405)" fill="#fff" />
    <path id="path_39" data-name="path 39"
        d="M17.686,56.356H13.825c-.174,0-.322-.034-.392-.208a.369.369,0,0,1,.122-.414q1.909-2.062,3.814-4.129c.234-.254.409-.255.643,0q1.914,2.071,3.824,4.14a.354.354,0,0,1,.109.416.366.366,0,0,1-.383.2Q19.624,56.353,17.686,56.356Zm.006-4.128L14.5,55.688h6.387Z"
        transform="translate(-11.43 -43.833)" fill="#fff" />
    <path id="path_40" data-name="path 40"
        d="M26.84,29.463a2.331,2.331,0,0,1,2.2-2.525,2.293,2.293,0,0,1,1.8,3.849.345.345,0,0,1-.513.075c-.152-.136-.143-.329.022-.516a1.641,1.641,0,0,0-.366-2.54,1.684,1.684,0,0,0-2.115.376,1.656,1.656,0,0,0,.062,2.153.589.589,0,0,1,.14.31.275.275,0,0,1-.2.279.325.325,0,0,1-.366-.09A2.179,2.179,0,0,1,26.84,29.463Z"
        transform="translate(-22.882 -22.961)" fill="#fff" />
</svg>
